<?xml version="1.0" encoding="utf-8"?>
<!-- Generator: Adobe Illustrator 24.0.0, SVG Export Plug-In . SVG Version: 6.00 Build 0)  -->
<svg version="1.1" id="Layer_1" xmlns="http://www.w3.org/2000/svg" xmlns:xlink="http://www.w3.org/1999/xlink" x="0px" y="0px"
	 viewBox="0 0 100 100" style="enable-background:new 0 0 100 100;" xml:space="preserve">
<style type="text/css">
	.st0{fill:url(#SVGID_1_);}
	.st1{fill:url(#SVGID_2_);}
	.st2{fill:url(#SVGID_3_);}
	.st3{fill:url(#SVGID_4_);}
	.st4{fill:url(#SVGID_5_);}
	.st5{fill:url(#SVGID_6_);}
	.st6{fill:url(#SVGID_7_);}
	.st7{fill:url(#SVGID_8_);}
	.st8{fill:url(#SVGID_9_);}
	.st9{fill:url(#SVGID_10_);}
	.st10{fill:url(#SVGID_11_);}
	.st11{fill:url(#SVGID_12_);}
	.st12{fill:url(#SVGID_13_);}
	.st13{fill:url(#SVGID_14_);}
	.st14{fill:url(#SVGID_15_);}
	.st15{fill:url(#SVGID_16_);}
	.st16{fill:url(#SVGID_17_);}
	.st17{font-family:'Gabriola';}
	.st18{font-size:12px;}
	.st19{opacity:0.25;fill:#00FF00;}
</style>
<g>
	<g>
		<linearGradient id="SVGID_1_" gradientUnits="userSpaceOnUse" x1="25" y1="51.9402" x2="74.8379" y2="51.9402">
			<stop  offset="0.4243" style="stop-color:#1CF90B"/>
			<stop  offset="0.5251" style="stop-color:#1EF90D"/>
			<stop  offset="0.5825" style="stop-color:#26F916"/>
			<stop  offset="0.6291" style="stop-color:#33FA24"/>
			<stop  offset="0.6698" style="stop-color:#45FA37"/>
			<stop  offset="0.7067" style="stop-color:#5DFB51"/>
			<stop  offset="0.7409" style="stop-color:#7BFB71"/>
			<stop  offset="0.773" style="stop-color:#9EFC96"/>
			<stop  offset="0.8034" style="stop-color:#C6FDC2"/>
			<stop  offset="0.8314" style="stop-color:#F3FFF2"/>
			<stop  offset="0.8383" style="stop-color:#FFFFFF"/>
		</linearGradient>
		<path class="st0" d="M26.09,39.54c0-0.08-0.01-0.15-0.02-0.21s-0.04-0.11-0.07-0.14s-0.08-0.06-0.14-0.08s-0.14-0.03-0.23-0.03
			c-0.13,0-0.29,0.01-0.5,0.04l-0.04-0.26c0.18-0.03,0.38-0.07,0.6-0.1s0.44-0.07,0.67-0.1s0.46-0.05,0.69-0.07s0.45-0.03,0.67-0.03
			c0.28,0,0.55,0.03,0.79,0.08s0.46,0.14,0.65,0.26s0.33,0.29,0.44,0.49s0.16,0.46,0.16,0.77c0,0.36-0.06,0.68-0.18,0.96
			s-0.29,0.52-0.51,0.72s-0.48,0.35-0.78,0.45s-0.64,0.16-1.01,0.16c-0.08,0-0.14-0.01-0.17-0.04s-0.05-0.08-0.05-0.16v-0.04
			c0-0.02,0-0.03,0-0.04c0.29,0,0.53-0.03,0.74-0.09s0.38-0.14,0.52-0.24s0.25-0.21,0.34-0.34s0.15-0.26,0.19-0.39
			s0.07-0.27,0.09-0.4s0.02-0.25,0.02-0.35c0-0.28-0.04-0.52-0.12-0.71s-0.19-0.34-0.32-0.45s-0.29-0.19-0.48-0.24
			s-0.38-0.07-0.58-0.07c-0.1,0-0.2,0-0.3,0.01s-0.2,0.02-0.31,0.03c0,0.15-0.01,0.35-0.02,0.6s-0.01,0.54-0.02,0.87
			s-0.02,0.69-0.03,1.08s-0.02,0.8-0.04,1.22s-0.02,0.86-0.04,1.31s-0.03,0.9-0.04,1.34l-0.69,0.09l-0.05-0.01
			c0.02-0.56,0.04-1.09,0.06-1.59s0.04-0.99,0.05-1.47s0.02-0.95,0.03-1.41S26.09,40.03,26.09,39.54z"/>
		<linearGradient id="SVGID_2_" gradientUnits="userSpaceOnUse" x1="25" y1="51.9402" x2="74.8379" y2="51.9402">
			<stop  offset="0.4243" style="stop-color:#1CF90B"/>
			<stop  offset="0.5251" style="stop-color:#1EF90D"/>
			<stop  offset="0.5825" style="stop-color:#26F916"/>
			<stop  offset="0.6291" style="stop-color:#33FA24"/>
			<stop  offset="0.6698" style="stop-color:#45FA37"/>
			<stop  offset="0.7067" style="stop-color:#5DFB51"/>
			<stop  offset="0.7409" style="stop-color:#7BFB71"/>
			<stop  offset="0.773" style="stop-color:#9EFC96"/>
			<stop  offset="0.8034" style="stop-color:#C6FDC2"/>
			<stop  offset="0.8314" style="stop-color:#F3FFF2"/>
			<stop  offset="0.8383" style="stop-color:#FFFFFF"/>
		</linearGradient>
		<path class="st1" d="M31.22,43.81c0.15-0.49,0.31-0.91,0.48-1.26s0.34-0.62,0.52-0.84s0.35-0.37,0.52-0.46s0.34-0.14,0.5-0.14
			c0.11,0,0.21,0.02,0.32,0.06s0.19,0.11,0.27,0.19s0.14,0.2,0.19,0.34s0.07,0.3,0.07,0.5c0,0.06,0,0.14-0.01,0.24
			s-0.02,0.21-0.02,0.34s-0.02,0.25-0.03,0.39s-0.02,0.27-0.03,0.4s-0.02,0.26-0.02,0.38s-0.01,0.22-0.01,0.31
			c0,0.15,0.01,0.28,0.02,0.37s0.03,0.17,0.06,0.23s0.07,0.09,0.12,0.11s0.11,0.03,0.18,0.03c0.1,0,0.21-0.01,0.32-0.04
			s0.22-0.07,0.33-0.12L35.03,45c-0.07,0.06-0.16,0.11-0.27,0.17s-0.22,0.11-0.34,0.16s-0.24,0.09-0.35,0.12s-0.22,0.05-0.31,0.05
			c-0.11,0-0.19-0.03-0.25-0.08s-0.11-0.13-0.14-0.23s-0.05-0.21-0.06-0.34s-0.01-0.27-0.01-0.42c0-0.18,0.01-0.37,0.02-0.56
			s0.03-0.38,0.04-0.56s0.03-0.34,0.04-0.49s0.02-0.27,0.02-0.36c0-0.22-0.04-0.38-0.13-0.49s-0.2-0.16-0.34-0.16
			c-0.11,0-0.23,0.05-0.36,0.14s-0.25,0.23-0.38,0.39s-0.24,0.36-0.36,0.59s-0.22,0.47-0.31,0.74s-0.17,0.54-0.23,0.83
			s-0.1,0.58-0.11,0.87l-0.62,0.08l-0.05,0c0.01-0.23,0.02-0.48,0.04-0.76s0.03-0.57,0.05-0.89s0.03-0.64,0.05-0.98
			s0.04-0.68,0.06-1.04s0.04-0.71,0.06-1.06s0.04-0.71,0.06-1.06s0.04-0.69,0.05-1.02s0.03-0.65,0.05-0.96
			c0-0.05,0.02-0.09,0.04-0.12s0.06-0.06,0.1-0.08s0.09-0.04,0.14-0.05s0.1-0.01,0.16-0.01c0.12,0,0.24,0.03,0.37,0.09
			c-0.04,0.4-0.08,0.76-0.12,1.1s-0.07,0.64-0.1,0.93s-0.05,0.55-0.08,0.8s-0.04,0.48-0.06,0.71s-0.04,0.45-0.05,0.66
			s-0.03,0.43-0.05,0.65s-0.03,0.45-0.05,0.69s-0.03,0.5-0.05,0.77L31.22,43.81z"/>
		<linearGradient id="SVGID_3_" gradientUnits="userSpaceOnUse" x1="25" y1="51.9402" x2="74.8379" y2="51.9402">
			<stop  offset="0.4243" style="stop-color:#1CF90B"/>
			<stop  offset="0.5251" style="stop-color:#1EF90D"/>
			<stop  offset="0.5825" style="stop-color:#26F916"/>
			<stop  offset="0.6291" style="stop-color:#33FA24"/>
			<stop  offset="0.6698" style="stop-color:#45FA37"/>
			<stop  offset="0.7067" style="stop-color:#5DFB51"/>
			<stop  offset="0.7409" style="stop-color:#7BFB71"/>
			<stop  offset="0.773" style="stop-color:#9EFC96"/>
			<stop  offset="0.8034" style="stop-color:#C6FDC2"/>
			<stop  offset="0.8314" style="stop-color:#F3FFF2"/>
			<stop  offset="0.8383" style="stop-color:#FFFFFF"/>
		</linearGradient>
		<path class="st2" d="M36.61,45.39c-0.05-0.19-0.1-0.38-0.16-0.58s-0.12-0.41-0.18-0.61s-0.12-0.41-0.18-0.61s-0.12-0.39-0.17-0.57
			s-0.11-0.35-0.16-0.5s-0.09-0.29-0.13-0.4c-0.04-0.12-0.08-0.21-0.12-0.28s-0.08-0.13-0.12-0.17s-0.08-0.07-0.13-0.08
			s-0.09-0.02-0.15-0.02c-0.06,0-0.13,0.01-0.2,0.02s-0.16,0.03-0.26,0.06l-0.04-0.21c0.12-0.04,0.23-0.08,0.34-0.12
			s0.22-0.07,0.31-0.09s0.18-0.04,0.25-0.06s0.13-0.02,0.18-0.02c0.05,0,0.1,0.01,0.15,0.03s0.09,0.05,0.13,0.09s0.09,0.1,0.13,0.18
			s0.08,0.17,0.12,0.29c0.03,0.07,0.06,0.17,0.1,0.29s0.08,0.25,0.12,0.4s0.09,0.31,0.14,0.48s0.1,0.35,0.15,0.54
			s0.1,0.38,0.15,0.58s0.1,0.39,0.15,0.59c0.1-0.26,0.2-0.52,0.31-0.8s0.21-0.56,0.33-0.84s0.22-0.56,0.33-0.84s0.21-0.54,0.32-0.79
			c0.02-0.04,0.04-0.08,0.07-0.11s0.06-0.05,0.1-0.07s0.08-0.03,0.12-0.04s0.08-0.01,0.12-0.01c0.06,0,0.13,0.01,0.19,0.03
			s0.12,0.04,0.17,0.07c-0.09,0.14-0.18,0.3-0.27,0.48s-0.19,0.36-0.29,0.56s-0.2,0.4-0.3,0.62s-0.2,0.43-0.3,0.66
			s-0.2,0.45-0.29,0.67s-0.19,0.45-0.28,0.67c-0.09,0.22-0.18,0.44-0.26,0.65s-0.16,0.42-0.24,0.63s-0.15,0.4-0.23,0.58
			s-0.15,0.36-0.23,0.52c-0.07,0.15-0.15,0.29-0.24,0.42s-0.18,0.24-0.28,0.34s-0.21,0.17-0.34,0.22s-0.26,0.08-0.41,0.08
			c-0.09,0-0.17-0.01-0.25-0.04s-0.14-0.06-0.19-0.1s-0.09-0.09-0.12-0.14s-0.04-0.11-0.04-0.17c0-0.06,0.02-0.13,0.06-0.2
			s0.09-0.12,0.15-0.16c0.08,0.05,0.17,0.09,0.25,0.11s0.16,0.03,0.23,0.03c0.16,0,0.3-0.04,0.43-0.13s0.24-0.22,0.35-0.39
			s0.22-0.39,0.33-0.65s0.23-0.57,0.37-0.92l0.06-0.16L36.61,45.39z"/>
		<linearGradient id="SVGID_4_" gradientUnits="userSpaceOnUse" x1="25" y1="51.9402" x2="74.8379" y2="51.9402">
			<stop  offset="0.4243" style="stop-color:#1CF90B"/>
			<stop  offset="0.5251" style="stop-color:#1EF90D"/>
			<stop  offset="0.5825" style="stop-color:#26F916"/>
			<stop  offset="0.6291" style="stop-color:#33FA24"/>
			<stop  offset="0.6698" style="stop-color:#45FA37"/>
			<stop  offset="0.7067" style="stop-color:#5DFB51"/>
			<stop  offset="0.7409" style="stop-color:#7BFB71"/>
			<stop  offset="0.773" style="stop-color:#9EFC96"/>
			<stop  offset="0.8034" style="stop-color:#C6FDC2"/>
			<stop  offset="0.8314" style="stop-color:#F3FFF2"/>
			<stop  offset="0.8383" style="stop-color:#FFFFFF"/>
		</linearGradient>
		<path class="st3" d="M39.71,44.31c0.01,0.15,0.05,0.28,0.12,0.38s0.15,0.2,0.24,0.26s0.2,0.12,0.32,0.15s0.23,0.05,0.35,0.05
			c0.11,0,0.21-0.01,0.31-0.04s0.19-0.07,0.26-0.13s0.14-0.12,0.18-0.2s0.07-0.17,0.07-0.27c0-0.1-0.02-0.19-0.07-0.27
			s-0.11-0.15-0.2-0.21s-0.18-0.12-0.29-0.18s-0.22-0.11-0.34-0.17c-0.1-0.05-0.21-0.1-0.31-0.15s-0.21-0.1-0.3-0.16
			s-0.19-0.12-0.27-0.19s-0.16-0.14-0.22-0.23s-0.11-0.18-0.15-0.28s-0.05-0.22-0.05-0.34c0-0.13,0.02-0.26,0.07-0.37
			s0.11-0.22,0.19-0.31s0.17-0.17,0.28-0.24s0.22-0.13,0.34-0.17s0.25-0.08,0.37-0.1s0.25-0.03,0.37-0.03c0.16,0,0.3,0.02,0.44,0.05
			s0.26,0.08,0.37,0.15s0.19,0.15,0.25,0.24s0.09,0.2,0.09,0.32c0,0.04-0.01,0.09-0.02,0.15s-0.04,0.1-0.08,0.15
			s-0.09,0.08-0.15,0.12s-0.13,0.05-0.22,0.05c-0.08,0-0.17-0.01-0.26-0.04l-0.01-0.03c0.03-0.06,0.05-0.12,0.06-0.17
			s0.02-0.1,0.02-0.15c0-0.09-0.02-0.17-0.07-0.23s-0.1-0.11-0.17-0.15s-0.14-0.07-0.22-0.08s-0.16-0.03-0.24-0.03
			c-0.14,0-0.26,0.02-0.37,0.06s-0.2,0.09-0.28,0.15s-0.13,0.13-0.17,0.21s-0.06,0.16-0.06,0.24c0,0.11,0.03,0.2,0.08,0.29
			s0.13,0.16,0.23,0.23s0.2,0.14,0.32,0.2s0.25,0.13,0.38,0.19c0.15,0.07,0.3,0.14,0.44,0.22s0.28,0.16,0.39,0.26
			s0.21,0.21,0.28,0.33s0.11,0.27,0.11,0.44c0,0.2-0.04,0.38-0.13,0.54s-0.21,0.29-0.36,0.4s-0.32,0.19-0.51,0.24
			s-0.39,0.08-0.6,0.08c-0.1,0-0.21-0.01-0.32-0.02S40,45.46,39.9,45.43s-0.2-0.07-0.29-0.12s-0.17-0.1-0.24-0.16
			s-0.12-0.13-0.16-0.2s-0.06-0.15-0.06-0.24c0-0.08,0.02-0.14,0.05-0.19s0.07-0.1,0.13-0.13s0.11-0.06,0.18-0.07
			s0.13-0.03,0.2-0.03L39.71,44.31z"/>
		<linearGradient id="SVGID_5_" gradientUnits="userSpaceOnUse" x1="25" y1="51.9402" x2="74.8379" y2="51.9402">
			<stop  offset="0.4243" style="stop-color:#1CF90B"/>
			<stop  offset="0.5251" style="stop-color:#1EF90D"/>
			<stop  offset="0.5825" style="stop-color:#26F916"/>
			<stop  offset="0.6291" style="stop-color:#33FA24"/>
			<stop  offset="0.6698" style="stop-color:#45FA37"/>
			<stop  offset="0.7067" style="stop-color:#5DFB51"/>
			<stop  offset="0.7409" style="stop-color:#7BFB71"/>
			<stop  offset="0.773" style="stop-color:#9EFC96"/>
			<stop  offset="0.8034" style="stop-color:#C6FDC2"/>
			<stop  offset="0.8314" style="stop-color:#F3FFF2"/>
			<stop  offset="0.8383" style="stop-color:#FFFFFF"/>
		</linearGradient>
		<path class="st4" d="M43.91,41.24c-0.03,0.22-0.06,0.45-0.08,0.67s-0.04,0.44-0.06,0.65s-0.03,0.41-0.03,0.59
			s-0.01,0.35-0.01,0.51c0,0.2,0,0.38,0.01,0.52s0.02,0.27,0.03,0.37s0.03,0.18,0.05,0.24s0.05,0.11,0.08,0.14s0.07,0.05,0.11,0.06
			s0.09,0.01,0.14,0.01c0.09,0,0.19-0.01,0.3-0.04s0.22-0.07,0.33-0.12L44.82,45c-0.07,0.06-0.16,0.11-0.27,0.17
			s-0.22,0.11-0.34,0.16s-0.23,0.09-0.34,0.12s-0.21,0.05-0.29,0.05c-0.05,0-0.1,0-0.15-0.01s-0.09-0.03-0.12-0.07
			s-0.07-0.09-0.1-0.16s-0.05-0.16-0.07-0.28s-0.03-0.26-0.04-0.44s-0.01-0.39-0.01-0.64c0-0.15,0-0.31,0-0.5s0.01-0.38,0.01-0.59
			s0.01-0.44,0.02-0.67s0.02-0.48,0.04-0.73c0-0.05,0.02-0.1,0.04-0.13s0.06-0.06,0.09-0.08s0.08-0.03,0.12-0.04
			s0.08-0.01,0.12-0.01C43.67,41.15,43.8,41.18,43.91,41.24z M43.66,39.92c-0.07,0-0.13-0.01-0.18-0.04s-0.1-0.07-0.13-0.11
			s-0.07-0.1-0.08-0.16s-0.03-0.12-0.03-0.18c0-0.09,0.01-0.17,0.04-0.23s0.07-0.12,0.11-0.17s0.1-0.08,0.16-0.1
			s0.11-0.03,0.17-0.03c0.07,0,0.13,0.01,0.18,0.04s0.1,0.06,0.14,0.1s0.07,0.09,0.09,0.15s0.03,0.12,0.03,0.18
			c0,0.07-0.01,0.14-0.04,0.2s-0.06,0.13-0.1,0.18s-0.09,0.1-0.15,0.13S43.73,39.92,43.66,39.92z"/>
		<linearGradient id="SVGID_6_" gradientUnits="userSpaceOnUse" x1="25" y1="51.9402" x2="74.8379" y2="51.9402">
			<stop  offset="0.4243" style="stop-color:#1CF90B"/>
			<stop  offset="0.5251" style="stop-color:#1EF90D"/>
			<stop  offset="0.5825" style="stop-color:#26F916"/>
			<stop  offset="0.6291" style="stop-color:#33FA24"/>
			<stop  offset="0.6698" style="stop-color:#45FA37"/>
			<stop  offset="0.7067" style="stop-color:#5DFB51"/>
			<stop  offset="0.7409" style="stop-color:#7BFB71"/>
			<stop  offset="0.773" style="stop-color:#9EFC96"/>
			<stop  offset="0.8034" style="stop-color:#C6FDC2"/>
			<stop  offset="0.8314" style="stop-color:#F3FFF2"/>
			<stop  offset="0.8383" style="stop-color:#FFFFFF"/>
		</linearGradient>
		<path class="st5" d="M47.5,42.36c0.05-0.11,0.08-0.22,0.08-0.33c0-0.08-0.01-0.15-0.04-0.22s-0.07-0.13-0.12-0.18
			s-0.12-0.09-0.2-0.12s-0.17-0.05-0.28-0.05c-0.15,0-0.29,0.03-0.41,0.08s-0.23,0.13-0.32,0.22s-0.17,0.2-0.24,0.33
			s-0.12,0.25-0.16,0.4s-0.07,0.28-0.09,0.43s-0.03,0.29-0.03,0.43c0,0.25,0.03,0.48,0.1,0.69s0.15,0.38,0.27,0.53
			s0.24,0.26,0.39,0.34s0.31,0.12,0.47,0.12c0.18,0,0.36-0.05,0.54-0.14s0.36-0.24,0.53-0.45c0.01,0.01,0.03,0.01,0.05,0.02
			s0.04,0.02,0.05,0.04s0.03,0.03,0.04,0.04s0.02,0.03,0.02,0.04c0,0.01,0,0.01,0,0.01l-0.01,0.01c-0.19,0.31-0.42,0.54-0.68,0.69
			s-0.56,0.23-0.87,0.23c-0.17,0-0.33-0.02-0.47-0.07s-0.28-0.11-0.39-0.2s-0.22-0.19-0.31-0.3s-0.16-0.24-0.22-0.38
			s-0.1-0.28-0.13-0.43s-0.05-0.3-0.05-0.45c0-0.21,0.02-0.41,0.07-0.62s0.11-0.4,0.2-0.59s0.19-0.37,0.32-0.53s0.26-0.31,0.42-0.43
			s0.33-0.22,0.52-0.29s0.39-0.1,0.61-0.1c0.16,0,0.31,0.02,0.45,0.06s0.26,0.09,0.36,0.17s0.18,0.16,0.24,0.26s0.09,0.21,0.09,0.34
			c0,0.08-0.01,0.15-0.04,0.21s-0.06,0.11-0.1,0.16s-0.1,0.08-0.16,0.1s-0.12,0.03-0.19,0.03c-0.04,0-0.09,0-0.13-0.01
			s-0.09-0.02-0.14-0.04L47.5,42.36z"/>
		<linearGradient id="SVGID_7_" gradientUnits="userSpaceOnUse" x1="25" y1="51.9402" x2="74.8379" y2="51.9402">
			<stop  offset="0.4243" style="stop-color:#1CF90B"/>
			<stop  offset="0.5251" style="stop-color:#1EF90D"/>
			<stop  offset="0.5825" style="stop-color:#26F916"/>
			<stop  offset="0.6291" style="stop-color:#33FA24"/>
			<stop  offset="0.6698" style="stop-color:#45FA37"/>
			<stop  offset="0.7067" style="stop-color:#5DFB51"/>
			<stop  offset="0.7409" style="stop-color:#7BFB71"/>
			<stop  offset="0.773" style="stop-color:#9EFC96"/>
			<stop  offset="0.8034" style="stop-color:#C6FDC2"/>
			<stop  offset="0.8314" style="stop-color:#F3FFF2"/>
			<stop  offset="0.8383" style="stop-color:#FFFFFF"/>
		</linearGradient>
		<path class="st6" d="M49.16,44.31c0.01,0.15,0.05,0.28,0.12,0.38s0.15,0.2,0.24,0.26s0.2,0.12,0.32,0.15s0.23,0.05,0.35,0.05
			c0.11,0,0.21-0.01,0.31-0.04s0.19-0.07,0.26-0.13s0.14-0.12,0.18-0.2s0.07-0.17,0.07-0.27c0-0.1-0.02-0.19-0.07-0.27
			s-0.11-0.15-0.2-0.21s-0.18-0.12-0.29-0.18s-0.22-0.11-0.34-0.17c-0.1-0.05-0.21-0.1-0.31-0.15s-0.21-0.1-0.3-0.16
			s-0.19-0.12-0.27-0.19s-0.16-0.14-0.22-0.23s-0.11-0.18-0.15-0.28s-0.05-0.22-0.05-0.34c0-0.13,0.02-0.26,0.07-0.37
			s0.11-0.22,0.19-0.31s0.17-0.17,0.28-0.24s0.22-0.13,0.34-0.17s0.25-0.08,0.37-0.1s0.25-0.03,0.37-0.03c0.16,0,0.3,0.02,0.44,0.05
			c0.14,0.03,0.26,0.08,0.37,0.15c0.1,0.07,0.19,0.15,0.25,0.24c0.06,0.09,0.09,0.2,0.09,0.32c0,0.04-0.01,0.09-0.02,0.15
			s-0.04,0.1-0.08,0.15s-0.09,0.08-0.15,0.12s-0.13,0.05-0.22,0.05c-0.08,0-0.17-0.01-0.26-0.04l-0.01-0.03
			c0.03-0.06,0.05-0.12,0.06-0.17s0.02-0.1,0.02-0.15c0-0.09-0.02-0.17-0.07-0.23s-0.1-0.11-0.17-0.15s-0.14-0.07-0.22-0.08
			s-0.16-0.03-0.24-0.03c-0.14,0-0.26,0.02-0.37,0.06s-0.2,0.09-0.28,0.15s-0.13,0.13-0.17,0.21s-0.06,0.16-0.06,0.24
			c0,0.11,0.03,0.2,0.08,0.29s0.13,0.16,0.23,0.23s0.2,0.14,0.32,0.2s0.25,0.13,0.38,0.19c0.15,0.07,0.3,0.14,0.44,0.22
			s0.28,0.16,0.39,0.26s0.21,0.21,0.28,0.33c0.07,0.12,0.11,0.27,0.11,0.44c0,0.2-0.04,0.38-0.13,0.54
			c-0.09,0.16-0.21,0.29-0.36,0.4s-0.32,0.19-0.51,0.24s-0.39,0.08-0.6,0.08c-0.1,0-0.21-0.01-0.32-0.02s-0.22-0.04-0.32-0.07
			s-0.2-0.07-0.29-0.12s-0.17-0.1-0.24-0.16s-0.12-0.13-0.16-0.2s-0.06-0.15-0.06-0.24c0-0.08,0.02-0.14,0.05-0.19
			s0.07-0.1,0.13-0.13s0.11-0.06,0.18-0.07s0.13-0.03,0.2-0.03L49.16,44.31z"/>
		<linearGradient id="SVGID_8_" gradientUnits="userSpaceOnUse" x1="25" y1="51.9402" x2="74.8379" y2="51.9402">
			<stop  offset="0.4243" style="stop-color:#1CF90B"/>
			<stop  offset="0.5251" style="stop-color:#1EF90D"/>
			<stop  offset="0.5825" style="stop-color:#26F916"/>
			<stop  offset="0.6291" style="stop-color:#33FA24"/>
			<stop  offset="0.6698" style="stop-color:#45FA37"/>
			<stop  offset="0.7067" style="stop-color:#5DFB51"/>
			<stop  offset="0.7409" style="stop-color:#7BFB71"/>
			<stop  offset="0.773" style="stop-color:#9EFC96"/>
			<stop  offset="0.8034" style="stop-color:#C6FDC2"/>
			<stop  offset="0.8314" style="stop-color:#F3FFF2"/>
			<stop  offset="0.8383" style="stop-color:#FFFFFF"/>
		</linearGradient>
		<path class="st7" d="M26.09,53.94c0-0.08-0.01-0.15-0.02-0.21s-0.04-0.11-0.07-0.14s-0.08-0.06-0.14-0.08s-0.14-0.03-0.23-0.03
			c-0.13,0-0.29,0.01-0.5,0.04l-0.03-0.26c0.18-0.03,0.37-0.07,0.58-0.1s0.42-0.07,0.65-0.1s0.44-0.05,0.67-0.07
			c0.22-0.02,0.44-0.03,0.65-0.03c0.17,0,0.34,0.01,0.5,0.03s0.32,0.05,0.47,0.09c0.15,0.04,0.28,0.09,0.4,0.16
			c0.12,0.07,0.23,0.15,0.32,0.25s0.16,0.22,0.21,0.35c0.05,0.13,0.08,0.29,0.08,0.47c0,0.25-0.05,0.48-0.14,0.67
			c-0.09,0.2-0.21,0.37-0.37,0.51c-0.15,0.14-0.33,0.27-0.53,0.37c-0.2,0.1-0.41,0.18-0.64,0.24v0.03c0.29,0.02,0.56,0.07,0.81,0.15
			s0.46,0.18,0.64,0.33s0.32,0.31,0.43,0.52s0.15,0.45,0.15,0.74c0,0.24-0.03,0.45-0.1,0.64s-0.16,0.36-0.27,0.51
			s-0.25,0.28-0.41,0.38s-0.33,0.19-0.51,0.26s-0.38,0.12-0.58,0.15c-0.2,0.03-0.41,0.05-0.62,0.05c-0.17,0-0.34-0.01-0.49-0.03
			s-0.32-0.04-0.5-0.07l-0.57,0.07l-0.05-0.01c0.03-0.26,0.05-0.54,0.07-0.83s0.04-0.61,0.05-0.94s0.03-0.66,0.04-1
			s0.02-0.69,0.03-1.04c0.01-0.35,0.01-0.7,0.01-1.04C26.09,54.61,26.09,54.27,26.09,53.94z M26.64,59.4
			c0.15,0.04,0.29,0.06,0.42,0.08s0.27,0.02,0.4,0.02c0.24,0,0.47-0.03,0.68-0.09c0.21-0.06,0.39-0.15,0.55-0.28
			c0.16-0.13,0.28-0.29,0.37-0.49c0.09-0.2,0.13-0.44,0.13-0.72c0-0.26-0.04-0.49-0.13-0.68c-0.09-0.2-0.22-0.36-0.39-0.49
			s-0.38-0.23-0.63-0.29c-0.25-0.07-0.54-0.1-0.86-0.1c-0.06,0-0.13,0-0.19,0c-0.07,0-0.13,0.01-0.2,0.01
			c0,0.12-0.01,0.26-0.01,0.42c-0.01,0.16-0.01,0.33-0.02,0.51s-0.02,0.37-0.02,0.56s-0.02,0.38-0.03,0.57s-0.02,0.36-0.03,0.53
			S26.65,59.27,26.64,59.4z M26.86,53.35c0,0.13,0,0.28-0.01,0.47c0,0.18-0.01,0.39-0.01,0.62c-0.01,0.23-0.01,0.48-0.02,0.75
			s-0.01,0.55-0.02,0.85c0.17,0,0.34-0.02,0.51-0.04c0.17-0.03,0.33-0.06,0.48-0.11s0.29-0.11,0.42-0.19
			c0.13-0.08,0.24-0.17,0.34-0.29s0.17-0.24,0.22-0.39c0.05-0.15,0.08-0.32,0.08-0.51c0-0.22-0.04-0.41-0.11-0.57
			s-0.17-0.28-0.3-0.37s-0.27-0.16-0.44-0.2s-0.35-0.06-0.54-0.06c-0.09,0-0.19,0-0.29,0.01S26.96,53.33,26.86,53.35z"/>
		<linearGradient id="SVGID_9_" gradientUnits="userSpaceOnUse" x1="25" y1="51.9402" x2="74.8379" y2="51.9402">
			<stop  offset="0.4243" style="stop-color:#1CF90B"/>
			<stop  offset="0.5251" style="stop-color:#1EF90D"/>
			<stop  offset="0.5825" style="stop-color:#26F916"/>
			<stop  offset="0.6291" style="stop-color:#33FA24"/>
			<stop  offset="0.6698" style="stop-color:#45FA37"/>
			<stop  offset="0.7067" style="stop-color:#5DFB51"/>
			<stop  offset="0.7409" style="stop-color:#7BFB71"/>
			<stop  offset="0.773" style="stop-color:#9EFC96"/>
			<stop  offset="0.8034" style="stop-color:#C6FDC2"/>
			<stop  offset="0.8314" style="stop-color:#F3FFF2"/>
			<stop  offset="0.8383" style="stop-color:#FFFFFF"/>
		</linearGradient>
		<path class="st8" d="M33.09,56.75c0-0.15-0.03-0.29-0.08-0.4s-0.12-0.21-0.2-0.28s-0.17-0.13-0.28-0.16s-0.21-0.05-0.31-0.05
			c-0.14,0-0.26,0.01-0.35,0.04s-0.17,0.07-0.23,0.12s-0.1,0.11-0.13,0.18c-0.03,0.07-0.04,0.14-0.04,0.22
			c0,0.09,0.02,0.19,0.05,0.28c0.03,0.1,0.08,0.19,0.15,0.28l-0.01,0.03c-0.11,0.05-0.22,0.08-0.34,0.08
			c-0.07,0-0.13-0.01-0.19-0.03c-0.06-0.02-0.11-0.05-0.15-0.09s-0.08-0.09-0.1-0.14s-0.04-0.12-0.04-0.19
			c0-0.12,0.03-0.22,0.08-0.33s0.13-0.19,0.22-0.28s0.2-0.16,0.32-0.23s0.25-0.12,0.38-0.17c0.13-0.04,0.26-0.08,0.39-0.11
			c0.13-0.02,0.25-0.04,0.36-0.04c0.21,0,0.38,0.03,0.53,0.08s0.26,0.13,0.35,0.24c0.09,0.1,0.16,0.23,0.2,0.38s0.06,0.32,0.06,0.5
			c0,0.13-0.01,0.27-0.02,0.42s-0.02,0.32-0.04,0.49c-0.01,0.17-0.03,0.34-0.04,0.52s-0.02,0.36-0.02,0.54
			c0,0.28,0.05,0.49,0.16,0.63c0.1,0.14,0.24,0.21,0.41,0.21c0.15,0,0.32-0.06,0.5-0.17l0.08,0.13c-0.13,0.13-0.27,0.23-0.43,0.3
			s-0.32,0.1-0.49,0.1c-0.13,0-0.24-0.02-0.35-0.06s-0.2-0.11-0.28-0.19c-0.08-0.09-0.14-0.19-0.18-0.32s-0.06-0.28-0.06-0.45
			c0-0.05,0-0.1,0-0.15s0.01-0.1,0.02-0.16h-0.02c-0.08,0.17-0.18,0.33-0.29,0.5c-0.11,0.16-0.23,0.31-0.36,0.44
			c-0.13,0.13-0.27,0.23-0.42,0.31c-0.15,0.08-0.31,0.12-0.47,0.12c-0.13,0-0.26-0.02-0.37-0.07s-0.21-0.11-0.29-0.19
			s-0.14-0.18-0.18-0.29c-0.04-0.11-0.07-0.24-0.07-0.37c0-0.17,0.03-0.33,0.1-0.47s0.15-0.27,0.26-0.38s0.25-0.21,0.4-0.29
			c0.16-0.08,0.33-0.15,0.51-0.2c0.18-0.05,0.38-0.09,0.58-0.12c0.21-0.03,0.41-0.04,0.63-0.04c0.01-0.12,0.02-0.24,0.03-0.36
			S33.09,56.89,33.09,56.75z M31.29,58.77c0,0.08,0.01,0.15,0.02,0.22c0.02,0.07,0.04,0.13,0.08,0.18s0.08,0.09,0.14,0.13
			c0.06,0.03,0.12,0.04,0.2,0.04c0.09,0,0.18-0.02,0.27-0.06s0.19-0.1,0.28-0.17s0.18-0.16,0.26-0.26c0.08-0.1,0.16-0.21,0.22-0.33
			s0.12-0.24,0.17-0.38c0.04-0.13,0.07-0.27,0.09-0.41c-0.14,0-0.29,0.01-0.43,0.03c-0.14,0.01-0.28,0.04-0.41,0.07
			s-0.25,0.07-0.36,0.12s-0.2,0.11-0.28,0.19c-0.08,0.07-0.14,0.16-0.19,0.27C31.31,58.51,31.29,58.63,31.29,58.77z"/>
		<linearGradient id="SVGID_10_" gradientUnits="userSpaceOnUse" x1="25" y1="51.9402" x2="74.8379" y2="51.9402">
			<stop  offset="0.4243" style="stop-color:#1CF90B"/>
			<stop  offset="0.5251" style="stop-color:#1EF90D"/>
			<stop  offset="0.5825" style="stop-color:#26F916"/>
			<stop  offset="0.6291" style="stop-color:#33FA24"/>
			<stop  offset="0.6698" style="stop-color:#45FA37"/>
			<stop  offset="0.7067" style="stop-color:#5DFB51"/>
			<stop  offset="0.7409" style="stop-color:#7BFB71"/>
			<stop  offset="0.773" style="stop-color:#9EFC96"/>
			<stop  offset="0.8034" style="stop-color:#C6FDC2"/>
			<stop  offset="0.8314" style="stop-color:#F3FFF2"/>
			<stop  offset="0.8383" style="stop-color:#FFFFFF"/>
		</linearGradient>
		<path class="st9" d="M35.48,56.4c0-0.08-0.01-0.15-0.02-0.2s-0.03-0.1-0.05-0.13c-0.02-0.03-0.06-0.06-0.09-0.07
			s-0.08-0.02-0.13-0.02c-0.07,0-0.15,0.01-0.25,0.03s-0.21,0.05-0.33,0.08l-0.04-0.21c0.14-0.05,0.27-0.09,0.4-0.13
			c0.13-0.04,0.25-0.07,0.35-0.1s0.2-0.05,0.28-0.07s0.15-0.02,0.19-0.02c0.11,0,0.2,0.03,0.27,0.1c0.06,0.07,0.1,0.18,0.1,0.35
			c0,0.02,0,0.06-0.01,0.14c0,0.07-0.01,0.16-0.02,0.27s-0.02,0.24-0.02,0.38c-0.01,0.14-0.02,0.29-0.03,0.45s-0.03,0.33-0.04,0.5
			c-0.02,0.17-0.03,0.34-0.05,0.51l0.02,0c0.15-0.5,0.31-0.93,0.48-1.28c0.17-0.35,0.34-0.63,0.52-0.84
			c0.18-0.21,0.35-0.37,0.52-0.47s0.34-0.14,0.5-0.14c0.11,0,0.21,0.02,0.32,0.06s0.19,0.11,0.27,0.2s0.14,0.21,0.19,0.35
			c0.05,0.14,0.07,0.31,0.07,0.51c0,0.06,0,0.14-0.01,0.24c-0.01,0.1-0.02,0.21-0.02,0.33s-0.02,0.25-0.03,0.38
			c-0.01,0.14-0.02,0.27-0.03,0.4s-0.02,0.26-0.02,0.37c-0.01,0.12-0.01,0.22-0.01,0.31c0,0.15,0.01,0.28,0.02,0.37
			s0.03,0.17,0.06,0.23c0.03,0.06,0.07,0.09,0.12,0.12c0.05,0.02,0.11,0.03,0.18,0.03c0.1,0,0.21-0.01,0.32-0.04
			c0.11-0.03,0.22-0.07,0.33-0.12l0.06,0.15c-0.07,0.06-0.16,0.11-0.27,0.17s-0.22,0.11-0.34,0.16s-0.24,0.09-0.35,0.12
			c-0.12,0.03-0.22,0.04-0.31,0.04c-0.11,0-0.19-0.03-0.25-0.08s-0.11-0.13-0.14-0.23s-0.05-0.21-0.06-0.34s-0.01-0.27-0.01-0.42
			c0-0.18,0.01-0.37,0.02-0.57c0.01-0.19,0.03-0.38,0.04-0.55s0.03-0.34,0.04-0.48c0.01-0.14,0.02-0.26,0.02-0.34
			c0-0.23-0.04-0.4-0.13-0.5c-0.09-0.11-0.2-0.16-0.34-0.16c-0.11,0-0.23,0.05-0.36,0.14s-0.25,0.23-0.37,0.39
			c-0.12,0.17-0.24,0.36-0.36,0.59c-0.11,0.23-0.22,0.47-0.31,0.74c-0.09,0.26-0.17,0.54-0.23,0.83s-0.1,0.58-0.11,0.87l-0.61,0.08
			l-0.05,0c0.02-0.19,0.03-0.39,0.04-0.61s0.03-0.44,0.04-0.67c0.01-0.23,0.02-0.45,0.03-0.67c0.01-0.22,0.02-0.43,0.02-0.62
			c0.01-0.19,0.01-0.36,0.01-0.52S35.48,56.48,35.48,56.4z"/>
		<linearGradient id="SVGID_11_" gradientUnits="userSpaceOnUse" x1="25" y1="51.9402" x2="74.8379" y2="51.9402">
			<stop  offset="0.4243" style="stop-color:#1CF90B"/>
			<stop  offset="0.5251" style="stop-color:#1EF90D"/>
			<stop  offset="0.5825" style="stop-color:#26F916"/>
			<stop  offset="0.6291" style="stop-color:#33FA24"/>
			<stop  offset="0.6698" style="stop-color:#45FA37"/>
			<stop  offset="0.7067" style="stop-color:#5DFB51"/>
			<stop  offset="0.7409" style="stop-color:#7BFB71"/>
			<stop  offset="0.773" style="stop-color:#9EFC96"/>
			<stop  offset="0.8034" style="stop-color:#C6FDC2"/>
			<stop  offset="0.8314" style="stop-color:#F3FFF2"/>
			<stop  offset="0.8383" style="stop-color:#FFFFFF"/>
		</linearGradient>
		<path class="st10" d="M43.23,56.11c0.1,0.14,0.17,0.29,0.21,0.43s0.06,0.29,0.06,0.44c0,0.15-0.02,0.3-0.06,0.45
			c-0.04,0.15-0.1,0.29-0.18,0.42c-0.08,0.13-0.17,0.25-0.28,0.36c-0.11,0.11-0.23,0.21-0.36,0.29c-0.13,0.08-0.28,0.14-0.43,0.19
			s-0.31,0.07-0.48,0.07c-0.04,0-0.09,0-0.13-0.01s-0.09-0.01-0.13-0.01c-0.07,0.01-0.13,0.03-0.19,0.06s-0.11,0.06-0.15,0.1
			s-0.08,0.08-0.1,0.12c-0.02,0.04-0.04,0.08-0.04,0.13c0,0.09,0.03,0.16,0.1,0.22s0.16,0.11,0.27,0.16s0.24,0.08,0.39,0.12
			c0.15,0.04,0.31,0.07,0.47,0.1c0.15,0.03,0.29,0.06,0.43,0.1s0.28,0.07,0.41,0.11s0.25,0.09,0.36,0.15
			c0.11,0.06,0.2,0.13,0.28,0.2c0.08,0.08,0.14,0.17,0.19,0.27c0.04,0.1,0.07,0.22,0.07,0.36c0,0.17-0.03,0.33-0.09,0.49
			c-0.06,0.16-0.15,0.3-0.26,0.44s-0.24,0.26-0.4,0.38s-0.32,0.21-0.51,0.29c-0.19,0.08-0.38,0.14-0.59,0.19
			c-0.21,0.04-0.43,0.07-0.65,0.07c-0.13,0-0.26-0.01-0.41-0.03c-0.14-0.02-0.28-0.05-0.42-0.09c-0.14-0.04-0.27-0.09-0.4-0.15
			c-0.13-0.06-0.24-0.14-0.33-0.23s-0.17-0.19-0.23-0.31s-0.08-0.25-0.08-0.4c0-0.13,0.02-0.25,0.06-0.36s0.1-0.22,0.17-0.32
			s0.15-0.19,0.24-0.28s0.19-0.16,0.29-0.23s0.21-0.13,0.31-0.18c0.11-0.05,0.21-0.09,0.31-0.12l0.01-0.01
			c-0.07-0.03-0.14-0.07-0.21-0.11c-0.07-0.04-0.13-0.09-0.19-0.14s-0.1-0.12-0.13-0.19c-0.03-0.07-0.05-0.15-0.05-0.24
			c0-0.1,0.02-0.19,0.07-0.27c0.05-0.08,0.1-0.15,0.17-0.21c0.07-0.06,0.15-0.11,0.23-0.16s0.17-0.08,0.24-0.12
			c-0.15-0.06-0.28-0.13-0.4-0.23s-0.22-0.2-0.3-0.31s-0.14-0.25-0.19-0.38c-0.04-0.14-0.06-0.28-0.06-0.43
			c0-0.26,0.05-0.49,0.15-0.71c0.1-0.22,0.23-0.41,0.4-0.56s0.36-0.28,0.59-0.37s0.46-0.13,0.7-0.13c0.09,0,0.18,0.01,0.26,0.02
			s0.15,0.03,0.22,0.05c0.07,0.02,0.13,0.04,0.18,0.07c0.06,0.02,0.11,0.05,0.16,0.07c0.07,0.04,0.15,0.07,0.22,0.1
			c0.07,0.03,0.15,0.04,0.25,0.04c0.08,0,0.15-0.01,0.23-0.04s0.14-0.06,0.19-0.11c0.05-0.05,0.1-0.11,0.13-0.18
			c0.03-0.07,0.05-0.15,0.05-0.24c0-0.01,0-0.03,0-0.04s0-0.03,0-0.04l0.04-0.03c0.13,0.06,0.23,0.14,0.3,0.23
			c0.07,0.09,0.1,0.19,0.1,0.28c0,0.07-0.01,0.14-0.04,0.2c-0.03,0.06-0.07,0.11-0.12,0.15s-0.12,0.07-0.19,0.09
			s-0.16,0.03-0.25,0.03c-0.14,0-0.28-0.03-0.44-0.08L43.23,56.11z M41.31,60.21c-0.14,0.04-0.27,0.09-0.39,0.16
			s-0.23,0.16-0.33,0.26c-0.1,0.1-0.17,0.22-0.23,0.34s-0.08,0.27-0.08,0.42c0,0.19,0.04,0.35,0.12,0.49
			c0.08,0.13,0.19,0.25,0.32,0.34s0.28,0.16,0.44,0.2s0.32,0.06,0.48,0.06c0.21,0,0.42-0.03,0.62-0.1c0.2-0.07,0.37-0.16,0.51-0.27
			c0.15-0.12,0.26-0.25,0.35-0.41s0.13-0.33,0.13-0.52c0-0.11-0.02-0.2-0.06-0.27c-0.04-0.07-0.1-0.14-0.18-0.2
			c-0.08-0.06-0.16-0.1-0.27-0.14s-0.22-0.08-0.34-0.11c-0.17-0.04-0.34-0.09-0.53-0.12S41.5,60.26,41.31,60.21z M41.91,58.44
			c0.11,0,0.2-0.02,0.29-0.05c0.08-0.04,0.16-0.08,0.23-0.14s0.12-0.13,0.17-0.21c0.05-0.08,0.09-0.17,0.12-0.25
			c0.03-0.09,0.05-0.18,0.07-0.27c0.01-0.09,0.02-0.18,0.02-0.27c0-0.11-0.01-0.22-0.03-0.33c-0.02-0.11-0.05-0.22-0.08-0.32
			s-0.08-0.2-0.14-0.29s-0.12-0.17-0.2-0.24c-0.08-0.07-0.16-0.12-0.26-0.16s-0.21-0.06-0.33-0.06c-0.11,0-0.21,0.02-0.3,0.05
			s-0.17,0.08-0.24,0.14s-0.13,0.13-0.17,0.21c-0.05,0.08-0.09,0.16-0.12,0.25c-0.03,0.09-0.05,0.18-0.07,0.27s-0.02,0.18-0.02,0.26
			c0,0.11,0.01,0.22,0.03,0.33c0.02,0.11,0.05,0.22,0.09,0.32s0.09,0.2,0.15,0.29s0.13,0.17,0.21,0.24s0.17,0.12,0.27,0.16
			S41.79,58.44,41.91,58.44z"/>
		<linearGradient id="SVGID_12_" gradientUnits="userSpaceOnUse" x1="25" y1="51.9402" x2="74.8379" y2="51.9402">
			<stop  offset="0.4243" style="stop-color:#1CF90B"/>
			<stop  offset="0.5251" style="stop-color:#1EF90D"/>
			<stop  offset="0.5825" style="stop-color:#26F916"/>
			<stop  offset="0.6291" style="stop-color:#33FA24"/>
			<stop  offset="0.6698" style="stop-color:#45FA37"/>
			<stop  offset="0.7067" style="stop-color:#5DFB51"/>
			<stop  offset="0.7409" style="stop-color:#7BFB71"/>
			<stop  offset="0.773" style="stop-color:#9EFC96"/>
			<stop  offset="0.8034" style="stop-color:#C6FDC2"/>
			<stop  offset="0.8314" style="stop-color:#F3FFF2"/>
			<stop  offset="0.8383" style="stop-color:#FFFFFF"/>
		</linearGradient>
		<path class="st11" d="M46.02,51.9c-0.04,0.33-0.08,0.67-0.12,1.02c-0.04,0.35-0.07,0.7-0.11,1.06c-0.03,0.36-0.07,0.71-0.1,1.07
			s-0.05,0.71-0.08,1.06c-0.02,0.35-0.04,0.69-0.05,1.03s-0.02,0.66-0.02,0.97c0,0.19,0,0.36,0.01,0.5s0.01,0.26,0.02,0.35
			s0.03,0.17,0.04,0.23s0.04,0.1,0.07,0.13s0.06,0.05,0.1,0.06c0.04,0.01,0.08,0.02,0.13,0.02c0.09,0,0.19-0.01,0.3-0.04
			c0.11-0.03,0.22-0.07,0.33-0.12l0.06,0.15c-0.07,0.06-0.16,0.11-0.27,0.17s-0.22,0.11-0.34,0.16s-0.23,0.09-0.34,0.12
			c-0.11,0.03-0.21,0.04-0.29,0.04c-0.11,0-0.19-0.03-0.25-0.08c-0.06-0.05-0.11-0.14-0.14-0.26s-0.05-0.28-0.06-0.47
			c-0.01-0.19-0.01-0.43-0.01-0.71c0-0.1,0-0.25,0.01-0.43c0.01-0.19,0.01-0.41,0.02-0.66s0.02-0.52,0.04-0.82s0.03-0.6,0.04-0.92
			c0.02-0.32,0.03-0.64,0.05-0.96c0.02-0.32,0.04-0.63,0.05-0.94c0.02-0.3,0.03-0.59,0.05-0.85s0.03-0.5,0.04-0.71
			c0-0.05,0.02-0.09,0.04-0.12c0.03-0.04,0.06-0.06,0.1-0.08c0.04-0.02,0.08-0.04,0.13-0.05s0.1-0.01,0.15-0.01
			C45.77,51.81,45.89,51.84,46.02,51.9z"/>
		<linearGradient id="SVGID_13_" gradientUnits="userSpaceOnUse" x1="25" y1="51.9402" x2="74.8379" y2="51.9402">
			<stop  offset="0.4243" style="stop-color:#1CF90B"/>
			<stop  offset="0.5251" style="stop-color:#1EF90D"/>
			<stop  offset="0.5825" style="stop-color:#26F916"/>
			<stop  offset="0.6291" style="stop-color:#33FA24"/>
			<stop  offset="0.6698" style="stop-color:#45FA37"/>
			<stop  offset="0.7067" style="stop-color:#5DFB51"/>
			<stop  offset="0.7409" style="stop-color:#7BFB71"/>
			<stop  offset="0.773" style="stop-color:#9EFC96"/>
			<stop  offset="0.8034" style="stop-color:#C6FDC2"/>
			<stop  offset="0.8314" style="stop-color:#F3FFF2"/>
			<stop  offset="0.8383" style="stop-color:#FFFFFF"/>
		</linearGradient>
		<path class="st12" d="M49.36,56.75c0-0.15-0.03-0.29-0.08-0.4s-0.12-0.21-0.2-0.28s-0.17-0.13-0.28-0.16s-0.21-0.05-0.31-0.05
			c-0.14,0-0.26,0.01-0.35,0.04s-0.17,0.07-0.23,0.12s-0.1,0.11-0.13,0.18c-0.03,0.07-0.04,0.14-0.04,0.22
			c0,0.09,0.02,0.19,0.05,0.28c0.03,0.1,0.08,0.19,0.15,0.28l-0.01,0.03c-0.11,0.05-0.22,0.08-0.34,0.08
			c-0.07,0-0.13-0.01-0.19-0.03c-0.06-0.02-0.11-0.05-0.15-0.09s-0.08-0.09-0.1-0.14s-0.04-0.12-0.04-0.19
			c0-0.12,0.03-0.22,0.08-0.33s0.13-0.19,0.22-0.28s0.2-0.16,0.32-0.23s0.25-0.12,0.38-0.17c0.13-0.04,0.26-0.08,0.39-0.11
			c0.13-0.02,0.25-0.04,0.36-0.04c0.21,0,0.38,0.03,0.53,0.08s0.26,0.13,0.35,0.24c0.09,0.1,0.16,0.23,0.2,0.38s0.06,0.32,0.06,0.5
			c0,0.13-0.01,0.27-0.02,0.42s-0.02,0.32-0.04,0.49c-0.01,0.17-0.03,0.34-0.04,0.52s-0.02,0.36-0.02,0.54
			c0,0.28,0.05,0.49,0.16,0.63c0.1,0.14,0.24,0.21,0.41,0.21c0.15,0,0.32-0.06,0.5-0.17l0.08,0.13c-0.13,0.13-0.27,0.23-0.43,0.3
			s-0.32,0.1-0.49,0.1c-0.13,0-0.24-0.02-0.35-0.06s-0.2-0.11-0.28-0.19c-0.08-0.09-0.14-0.19-0.18-0.32s-0.06-0.28-0.06-0.45
			c0-0.05,0-0.1,0-0.15s0.01-0.1,0.02-0.16h-0.02c-0.08,0.17-0.18,0.33-0.29,0.5c-0.11,0.16-0.23,0.31-0.36,0.44
			c-0.13,0.13-0.27,0.23-0.42,0.31c-0.15,0.08-0.31,0.12-0.47,0.12c-0.13,0-0.26-0.02-0.37-0.07s-0.21-0.11-0.29-0.19
			s-0.14-0.18-0.18-0.29c-0.04-0.11-0.07-0.24-0.07-0.37c0-0.17,0.03-0.33,0.1-0.47s0.15-0.27,0.26-0.38s0.25-0.21,0.4-0.29
			c0.16-0.08,0.33-0.15,0.51-0.2c0.18-0.05,0.38-0.09,0.58-0.12c0.21-0.03,0.41-0.04,0.63-0.04c0.01-0.12,0.02-0.24,0.03-0.36
			S49.36,56.89,49.36,56.75z M47.56,58.77c0,0.08,0.01,0.15,0.02,0.22c0.02,0.07,0.04,0.13,0.08,0.18s0.08,0.09,0.14,0.13
			c0.06,0.03,0.12,0.04,0.2,0.04c0.09,0,0.18-0.02,0.27-0.06s0.19-0.1,0.28-0.17s0.18-0.16,0.26-0.26c0.08-0.1,0.16-0.21,0.22-0.33
			s0.12-0.24,0.17-0.38c0.04-0.13,0.07-0.27,0.09-0.41c-0.14,0-0.29,0.01-0.43,0.03c-0.14,0.01-0.28,0.04-0.41,0.07
			s-0.25,0.07-0.36,0.12s-0.2,0.11-0.28,0.19c-0.08,0.07-0.14,0.16-0.19,0.27C47.58,58.51,47.56,58.63,47.56,58.77z"/>
		<linearGradient id="SVGID_14_" gradientUnits="userSpaceOnUse" x1="25" y1="51.9402" x2="74.8379" y2="51.9402">
			<stop  offset="0.4243" style="stop-color:#1CF90B"/>
			<stop  offset="0.5251" style="stop-color:#1EF90D"/>
			<stop  offset="0.5825" style="stop-color:#26F916"/>
			<stop  offset="0.6291" style="stop-color:#33FA24"/>
			<stop  offset="0.6698" style="stop-color:#45FA37"/>
			<stop  offset="0.7067" style="stop-color:#5DFB51"/>
			<stop  offset="0.7409" style="stop-color:#7BFB71"/>
			<stop  offset="0.773" style="stop-color:#9EFC96"/>
			<stop  offset="0.8034" style="stop-color:#C6FDC2"/>
			<stop  offset="0.8314" style="stop-color:#F3FFF2"/>
			<stop  offset="0.8383" style="stop-color:#FFFFFF"/>
		</linearGradient>
		<path class="st13" d="M55.45,51.9c-0.07,0.5-0.14,1-0.2,1.52s-0.12,1.04-0.17,1.55S54.99,56,54.96,56.5s-0.04,0.98-0.04,1.44
			c0,0.22,0,0.41,0.01,0.57c0,0.16,0.01,0.29,0.02,0.4c0.01,0.11,0.03,0.2,0.04,0.26c0.02,0.06,0.04,0.11,0.07,0.15
			c0.03,0.04,0.06,0.06,0.1,0.07c0.04,0.01,0.08,0.02,0.13,0.02c0.09,0,0.2-0.01,0.3-0.04c0.11-0.03,0.22-0.07,0.33-0.12l0.06,0.15
			c-0.07,0.06-0.16,0.11-0.26,0.17c-0.11,0.06-0.22,0.11-0.34,0.16s-0.23,0.09-0.34,0.12c-0.11,0.03-0.21,0.04-0.29,0.04
			c-0.06,0-0.11-0.01-0.16-0.02s-0.08-0.04-0.12-0.07c-0.03-0.04-0.06-0.08-0.08-0.14c-0.02-0.06-0.04-0.13-0.05-0.22
			c-0.02-0.12-0.03-0.25-0.04-0.41c-0.01-0.16-0.02-0.33-0.02-0.51c0-0.2,0.01-0.39,0.02-0.6c0.01-0.2,0.04-0.4,0.07-0.61
			l-0.03-0.01c-0.15,0.4-0.31,0.75-0.49,1.08c-0.18,0.32-0.36,0.59-0.55,0.82s-0.38,0.4-0.57,0.52c-0.19,0.12-0.37,0.18-0.54,0.18
			c-0.18,0-0.33-0.04-0.45-0.13c-0.13-0.09-0.23-0.21-0.31-0.35c-0.08-0.15-0.14-0.31-0.18-0.5c-0.04-0.19-0.06-0.38-0.06-0.58
			c0-0.24,0.03-0.48,0.08-0.71c0.05-0.23,0.13-0.46,0.23-0.66c0.1-0.21,0.22-0.4,0.36-0.58c0.14-0.18,0.29-0.33,0.47-0.46
			s0.36-0.23,0.56-0.3c0.2-0.07,0.41-0.11,0.63-0.11c0.15,0,0.31,0.02,0.46,0.06c0.15,0.04,0.31,0.1,0.46,0.19
			c0.01-0.33,0.02-0.67,0.04-1.01c0.02-0.34,0.03-0.68,0.05-1s0.04-0.63,0.06-0.92s0.05-0.55,0.08-0.77
			c0.01-0.05,0.02-0.09,0.05-0.12c0.03-0.04,0.06-0.06,0.1-0.08c0.04-0.02,0.08-0.04,0.13-0.05s0.1-0.01,0.15-0.01
			C55.2,51.81,55.32,51.84,55.45,51.9z M54.4,56.03c-0.26-0.13-0.53-0.19-0.79-0.19c-0.19,0-0.36,0.03-0.52,0.09
			c-0.16,0.06-0.3,0.14-0.43,0.25c-0.13,0.11-0.24,0.23-0.33,0.38c-0.1,0.14-0.17,0.3-0.24,0.46c-0.06,0.17-0.11,0.34-0.14,0.51
			c-0.03,0.18-0.05,0.35-0.05,0.53c0,0.06,0,0.13,0.01,0.21c0.01,0.08,0.02,0.17,0.03,0.25c0.02,0.09,0.04,0.17,0.07,0.26
			c0.03,0.08,0.06,0.16,0.1,0.22s0.09,0.12,0.15,0.16c0.06,0.04,0.13,0.06,0.2,0.06c0.14,0,0.28-0.05,0.43-0.16s0.29-0.25,0.43-0.42
			c0.14-0.17,0.27-0.37,0.4-0.6c0.12-0.22,0.23-0.46,0.33-0.69c0.1-0.24,0.18-0.47,0.24-0.7C54.35,56.43,54.39,56.22,54.4,56.03z"/>
		<linearGradient id="SVGID_15_" gradientUnits="userSpaceOnUse" x1="25" y1="51.9402" x2="74.8379" y2="51.9402">
			<stop  offset="0.4243" style="stop-color:#1CF90B"/>
			<stop  offset="0.5251" style="stop-color:#1EF90D"/>
			<stop  offset="0.5825" style="stop-color:#26F916"/>
			<stop  offset="0.6291" style="stop-color:#33FA24"/>
			<stop  offset="0.6698" style="stop-color:#45FA37"/>
			<stop  offset="0.7067" style="stop-color:#5DFB51"/>
			<stop  offset="0.7409" style="stop-color:#7BFB71"/>
			<stop  offset="0.773" style="stop-color:#9EFC96"/>
			<stop  offset="0.8034" style="stop-color:#C6FDC2"/>
			<stop  offset="0.8314" style="stop-color:#F3FFF2"/>
			<stop  offset="0.8383" style="stop-color:#FFFFFF"/>
		</linearGradient>
		<path class="st14" d="M59.25,58.86c0.01,0.01,0.03,0.01,0.05,0.03c0.02,0.01,0.04,0.02,0.05,0.04c0.02,0.01,0.03,0.03,0.04,0.04
			c0.01,0.01,0.02,0.03,0.02,0.04c0,0.01,0,0.02-0.01,0.02c-0.11,0.15-0.23,0.28-0.35,0.4c-0.13,0.11-0.26,0.21-0.39,0.28
			c-0.14,0.07-0.27,0.13-0.42,0.17c-0.14,0.04-0.28,0.05-0.42,0.05c-0.23,0-0.45-0.05-0.64-0.14s-0.36-0.23-0.5-0.39
			s-0.25-0.36-0.33-0.58c-0.08-0.22-0.12-0.46-0.12-0.72c0-0.21,0.02-0.42,0.07-0.63c0.05-0.21,0.11-0.41,0.2-0.6
			c0.09-0.19,0.19-0.37,0.32-0.53c0.13-0.16,0.27-0.3,0.43-0.42c0.16-0.12,0.33-0.21,0.53-0.28c0.19-0.07,0.39-0.1,0.61-0.1
			c0.14,0,0.28,0.02,0.41,0.06s0.25,0.09,0.34,0.17c0.1,0.07,0.18,0.16,0.24,0.27s0.09,0.23,0.09,0.37c0,0.2-0.07,0.37-0.19,0.52
			c-0.13,0.15-0.31,0.27-0.54,0.38s-0.5,0.19-0.81,0.25c-0.31,0.06-0.64,0.11-1,0.14v0.05c0,0.25,0.03,0.48,0.09,0.69
			c0.06,0.21,0.15,0.38,0.26,0.53c0.11,0.15,0.24,0.26,0.39,0.34s0.31,0.12,0.49,0.12c0.18,0,0.36-0.04,0.54-0.13
			C58.87,59.19,59.06,59.05,59.25,58.86z M58.69,56.5c0-0.09-0.01-0.17-0.05-0.25c-0.03-0.08-0.07-0.15-0.13-0.2
			c-0.05-0.06-0.12-0.1-0.19-0.14s-0.15-0.05-0.24-0.05c-0.13,0-0.24,0.02-0.35,0.07s-0.2,0.11-0.28,0.18
			c-0.08,0.08-0.15,0.17-0.22,0.27c-0.06,0.1-0.12,0.21-0.16,0.33c-0.04,0.12-0.08,0.23-0.11,0.35s-0.05,0.24-0.06,0.35
			c0.28-0.02,0.53-0.05,0.75-0.1c0.22-0.05,0.41-0.11,0.56-0.19c0.15-0.07,0.27-0.16,0.35-0.27C58.65,56.76,58.69,56.64,58.69,56.5z
			"/>
		<linearGradient id="SVGID_16_" gradientUnits="userSpaceOnUse" x1="25" y1="51.9402" x2="74.8379" y2="51.9402">
			<stop  offset="0.4243" style="stop-color:#1CF90B"/>
			<stop  offset="0.5251" style="stop-color:#1EF90D"/>
			<stop  offset="0.5825" style="stop-color:#26F916"/>
			<stop  offset="0.6291" style="stop-color:#33FA24"/>
			<stop  offset="0.6698" style="stop-color:#45FA37"/>
			<stop  offset="0.7067" style="stop-color:#5DFB51"/>
			<stop  offset="0.7409" style="stop-color:#7BFB71"/>
			<stop  offset="0.773" style="stop-color:#9EFC96"/>
			<stop  offset="0.8034" style="stop-color:#C6FDC2"/>
			<stop  offset="0.8314" style="stop-color:#F3FFF2"/>
			<stop  offset="0.8383" style="stop-color:#FFFFFF"/>
		</linearGradient>
		<path class="st15" d="M60.4,58.71c0.01,0.15,0.05,0.28,0.12,0.38c0.06,0.11,0.15,0.2,0.24,0.26s0.2,0.12,0.32,0.15
			c0.12,0.03,0.23,0.05,0.35,0.05c0.11,0,0.21-0.01,0.31-0.04s0.19-0.07,0.26-0.13s0.14-0.12,0.18-0.2
			c0.04-0.08,0.07-0.17,0.07-0.27c0-0.1-0.02-0.19-0.07-0.27s-0.11-0.15-0.2-0.21s-0.18-0.12-0.29-0.18
			c-0.11-0.05-0.22-0.11-0.34-0.17c-0.1-0.05-0.21-0.1-0.31-0.15c-0.11-0.05-0.21-0.1-0.3-0.16s-0.19-0.12-0.27-0.19
			c-0.08-0.07-0.16-0.14-0.22-0.23c-0.06-0.08-0.11-0.18-0.15-0.28c-0.04-0.1-0.05-0.22-0.05-0.34c0-0.13,0.02-0.26,0.07-0.37
			s0.11-0.22,0.19-0.31c0.08-0.09,0.18-0.17,0.28-0.24c0.11-0.07,0.22-0.13,0.34-0.17c0.12-0.05,0.25-0.08,0.37-0.1
			c0.13-0.02,0.25-0.03,0.37-0.03c0.16,0,0.3,0.02,0.44,0.05c0.14,0.04,0.26,0.08,0.37,0.15c0.11,0.06,0.19,0.14,0.25,0.24
			c0.06,0.09,0.09,0.2,0.09,0.32c0,0.04-0.01,0.09-0.02,0.15s-0.04,0.1-0.08,0.15c-0.04,0.04-0.09,0.08-0.15,0.12
			s-0.13,0.05-0.22,0.05c-0.08,0-0.17-0.01-0.26-0.04l-0.01-0.03c0.03-0.06,0.05-0.12,0.06-0.17s0.02-0.1,0.02-0.15
			c0-0.09-0.03-0.17-0.07-0.23c-0.04-0.06-0.1-0.11-0.17-0.15s-0.14-0.07-0.22-0.08c-0.08-0.02-0.16-0.03-0.24-0.03
			c-0.14,0-0.26,0.02-0.37,0.06s-0.2,0.09-0.28,0.15c-0.07,0.06-0.13,0.13-0.17,0.21c-0.04,0.08-0.06,0.16-0.06,0.24
			c0,0.11,0.03,0.2,0.08,0.29c0.06,0.08,0.13,0.16,0.23,0.23c0.09,0.07,0.2,0.14,0.32,0.2c0.12,0.06,0.25,0.13,0.38,0.19
			c0.15,0.07,0.3,0.14,0.44,0.22c0.15,0.08,0.28,0.16,0.39,0.26s0.21,0.21,0.28,0.33c0.07,0.13,0.11,0.27,0.11,0.44
			c0,0.2-0.04,0.38-0.13,0.54c-0.09,0.16-0.21,0.29-0.36,0.4s-0.32,0.19-0.51,0.25c-0.19,0.05-0.39,0.08-0.6,0.08
			c-0.1,0-0.21-0.01-0.32-0.02c-0.11-0.02-0.22-0.04-0.32-0.07s-0.2-0.07-0.29-0.12c-0.09-0.04-0.17-0.1-0.24-0.16
			c-0.07-0.06-0.12-0.13-0.16-0.2c-0.04-0.07-0.06-0.15-0.06-0.24c0-0.08,0.02-0.14,0.05-0.19c0.03-0.05,0.08-0.1,0.13-0.13
			s0.11-0.06,0.18-0.08c0.07-0.02,0.13-0.03,0.2-0.03L60.4,58.71z"/>
		<linearGradient id="SVGID_17_" gradientUnits="userSpaceOnUse" x1="25" y1="51.9402" x2="74.8379" y2="51.9402">
			<stop  offset="0.4243" style="stop-color:#1CF90B"/>
			<stop  offset="0.5251" style="stop-color:#1EF90D"/>
			<stop  offset="0.5825" style="stop-color:#26F916"/>
			<stop  offset="0.6291" style="stop-color:#33FA24"/>
			<stop  offset="0.6698" style="stop-color:#45FA37"/>
			<stop  offset="0.7067" style="stop-color:#5DFB51"/>
			<stop  offset="0.7409" style="stop-color:#7BFB71"/>
			<stop  offset="0.773" style="stop-color:#9EFC96"/>
			<stop  offset="0.8034" style="stop-color:#C6FDC2"/>
			<stop  offset="0.8314" style="stop-color:#F3FFF2"/>
			<stop  offset="0.8383" style="stop-color:#FFFFFF"/>
		</linearGradient>
		<path class="st16" d="M64.34,58.21c0.15-0.49,0.31-0.91,0.48-1.26c0.17-0.34,0.34-0.62,0.52-0.84c0.17-0.21,0.35-0.37,0.52-0.46
			s0.34-0.14,0.5-0.14c0.11,0,0.21,0.02,0.32,0.06c0.1,0.04,0.19,0.11,0.27,0.19c0.08,0.09,0.14,0.2,0.19,0.34s0.07,0.3,0.07,0.5
			c0,0.06,0,0.14-0.01,0.24c-0.01,0.1-0.02,0.21-0.03,0.34c-0.01,0.13-0.02,0.25-0.03,0.39c-0.01,0.14-0.02,0.27-0.03,0.4
			s-0.02,0.26-0.02,0.38c-0.01,0.12-0.01,0.22-0.01,0.31c0,0.15,0.01,0.28,0.02,0.37s0.03,0.17,0.06,0.23
			c0.03,0.06,0.07,0.09,0.12,0.12c0.05,0.02,0.11,0.03,0.18,0.03c0.1,0,0.21-0.01,0.32-0.04c0.11-0.03,0.22-0.07,0.33-0.12
			l0.06,0.15c-0.07,0.06-0.16,0.11-0.27,0.17s-0.22,0.11-0.34,0.16s-0.24,0.09-0.35,0.12c-0.12,0.03-0.22,0.04-0.31,0.04
			c-0.11,0-0.19-0.03-0.25-0.08s-0.11-0.13-0.14-0.23s-0.05-0.21-0.06-0.34c-0.01-0.13-0.01-0.27-0.01-0.42
			c0-0.18,0.01-0.37,0.02-0.56s0.03-0.38,0.04-0.56c0.02-0.18,0.03-0.34,0.04-0.49c0.01-0.15,0.02-0.27,0.02-0.36
			c0-0.22-0.04-0.38-0.13-0.49c-0.08-0.11-0.2-0.16-0.34-0.16c-0.11,0-0.23,0.05-0.36,0.14c-0.13,0.1-0.25,0.23-0.38,0.39
			c-0.12,0.17-0.24,0.36-0.36,0.59c-0.12,0.23-0.22,0.47-0.31,0.74c-0.09,0.26-0.17,0.54-0.23,0.83s-0.1,0.58-0.11,0.87l-0.62,0.08
			l-0.05,0c0.01-0.23,0.02-0.49,0.04-0.76c0.01-0.28,0.03-0.57,0.05-0.89c0.02-0.31,0.03-0.64,0.05-0.98
			c0.02-0.34,0.04-0.68,0.05-1.04s0.04-0.71,0.06-1.06s0.04-0.71,0.06-1.06c0.02-0.35,0.04-0.69,0.05-1.02s0.03-0.65,0.05-0.96
			c0-0.05,0.02-0.09,0.04-0.12c0.03-0.04,0.06-0.06,0.1-0.08c0.04-0.02,0.09-0.04,0.14-0.05s0.1-0.01,0.16-0.01
			c0.12,0,0.24,0.03,0.37,0.09c-0.04,0.4-0.08,0.76-0.12,1.1c-0.04,0.33-0.07,0.64-0.09,0.93c-0.03,0.28-0.05,0.55-0.08,0.79
			c-0.02,0.25-0.04,0.48-0.06,0.71c-0.02,0.23-0.04,0.45-0.05,0.66s-0.03,0.43-0.05,0.66c-0.02,0.22-0.03,0.45-0.05,0.69
			c-0.02,0.24-0.03,0.5-0.05,0.77L64.34,58.21z"/>
	</g>
	<text transform="matrix(1 0 0 1 25 45.3657)"><tspan x="0" y="0" class="st17 st18">Physics</tspan><tspan x="0" y="14.4" class="st17 st18">Bangladesh</tspan></text>
</g>
<rect x="19" y="31" class="st19" width="55" height="36"/>
<text transform="matrix(1 0 0 1 118 2)" class="st17 st18">Lorem ipsum</text>
</svg>
